<?xml version="1.0" encoding="UTF-8" standalone="no"?>
<!-- Created with Inkscape (http://www.inkscape.org/) -->

<svg
   xmlns:dc="http://purl.org/dc/elements/1.1/"
   xmlns:cc="http://creativecommons.org/ns#"
   xmlns:rdf="http://www.w3.org/1999/02/22-rdf-syntax-ns#"
   xmlns:svg="http://www.w3.org/2000/svg"
   xmlns="http://www.w3.org/2000/svg"
   xmlns:sodipodi="http://sodipodi.sourceforge.net/DTD/sodipodi-0.dtd"
   xmlns:inkscape="http://www.inkscape.org/namespaces/inkscape"
   width="353.5"
   height="353.5"
   id="svg2"
   sodipodi:version="0.32"
   inkscape:version="0.47 r22583"
   version="1.0"
   sodipodi:docname="hairymnstr_Seasons.svg">
  <defs
     id="defs4">
    <inkscape:perspective
       sodipodi:type="inkscape:persp3d"
       inkscape:vp_x="0 : 398.54688 : 1"
       inkscape:vp_y="0 : 1000 : 0"
       inkscape:vp_z="799.03955 : 398.54688 : 1"
       inkscape:persp3d-origin="399.51978 : 265.69792 : 1"
       id="perspective2857" />
  </defs>
  <sodipodi:namedview
     id="base"
     pagecolor="#ffffff"
     bordercolor="#666666"
     borderopacity="1.0"
     gridtolerance="10000"
     guidetolerance="10"
     objecttolerance="10"
     inkscape:pageopacity="0.0"
     inkscape:pageshadow="2"
     inkscape:zoom="0.33463493"
     inkscape:cx="117.62048"
     inkscape:cy="550.46585"
     inkscape:document-units="px"
     inkscape:current-layer="layer1"
     showgrid="true"
     grid_units="cm"
     inkscape:object-paths="false"
     inkscape:grid-points="true"
     inkscape:guide-bbox="false"
     inkscape:grid-bbox="true"
     inkscape:window-width="1020"
     inkscape:window-height="698"
     inkscape:window-x="0"
     inkscape:window-y="24"
     inkscape:window-maximized="0">
    <inkscape:grid
       id="GridFromPre046Settings"
       type="xygrid"
       originx="0px"
       originy="0px"
       spacingx="0.5cm"
       spacingy="0.5cm"
       color="#0000ff"
       empcolor="#0000ff"
       opacity="0.2"
       empopacity="0.4"
       empspacing="5"
       units="cm"
       visible="true"
       enabled="true"
       snapvisiblegridlinesonly="true" />
  </sodipodi:namedview>
  <metadata
     id="metadata7">
    <rdf:RDF>
      <cc:Work
         rdf:about="">
        <dc:format>image/svg+xml</dc:format>
        <dc:type
           rdf:resource="http://purl.org/dc/dcmitype/StillImage" />
        <dc:title></dc:title>
      </cc:Work>
    </rdf:RDF>
  </metadata>
  <g
     inkscape:label="Layer 1"
     inkscape:groupmode="layer"
     id="layer1"
     transform="translate(-531.90625,-478.75)">
    <g
       id="g2859">
      <path
         id="rect7469"
         d="m 588.15625,514.90625 c -11.12737,0 -20.09375,8.96638 -20.09375,20.09375 l 0,241.03125 c 0,11.12737 8.96638,20.09375 20.09375,20.09375 l 241.03125,0 c 11.12737,0 20.0625,-8.96638 20.0625,-20.09375 L 849.25,535 c 0,-11.12737 -8.93513,-20.09375 -20.0625,-20.09375 l -241.03125,0 z M 705.625,531.5 l 7.0625,0 0.84375,28.8125 24.53125,-14.15625 3.5625,6.125 -25.375,14.65625 25.375,14.625 -3.5625,6.15625 -24.15625,-13.9375 1.8125,63.28125 16.9375,-29.34375 6.15625,3.53125 -15.9375,27.625 54.875,-29.59375 -24.15625,-13.96875 3.5625,-6.15625 25.34375,14.65625 0,-29.28125 7.09375,0 0,28.34375 25.375,-13.6875 3.53125,6.125 -24.53125,15.125 24.53125,14.15625 -3.53125,6.15625 -25.375,-14.65625 0.0312,29.3125 -7.125,-0.0312 0,-27.875 -55.9375,34.46875 35.75,0 0,7.09375 -36.71875,0 56.71875,34.96875 0,-27.90625 7.125,0 -0.0312,29.28125 25.375,-14.625 3.53125,6.125 -24.53125,14.1875 24.53125,15.125 -3.53125,6.125 -25.375,-13.6875 0,28.34375 -7.09375,0 0,-29.28125 -25.34375,14.65625 -3.5625,-6.15625 24.15625,-13.96875 -54.1875,-29.21875 15.4375,26.75 -6.15625,3.53125 -16.375,-28.375 -1.78125,62.28125 24.15625,-13.9375 3.5625,6.15625 -25.375,14.625 25.375,14.65625 -3.5625,6.125 -24.53125,-14.15625 -0.84375,28.8125 -7.0625,0 -0.84375,-28.8125 -24.53125,14.15625 -3.5625,-6.125 25.375,-14.65625 -25.375,-14.625 3.5625,-6.15625 L 705,737.21875 703.15625,673 l -17.5,30.3125 L 679.5,699.78125 697.03125,669.375 640.25,700.03125 664.40625,714 660.84375,720.15625 635.5,705.5 l 0,29.28125 -7.09375,0 0,-28.34375 -25.375,13.6875 L 599.5,714 624.03125,698.875 599.5,684.71875 l 3.53125,-6.15625 25.375,14.65625 -0.0312,-29.3125 7.125,0.0312 0,27.875 53.125,-32.75 -32.625,0 0,-7.09375 32.96875,0 -53.15625,-32.75 0,27.875 -7.125,0 0.0312,-29.28125 -25.375,14.65625 -3.53125,-6.15625 L 624.34375,612.1562 599.8125,597 l 3.53125,-6.09375 25.375,13.65625 0,-28.3125 7.09375,-0.0312 0,29.3125 25.34375,-14.65625 3.5625,6.15625 -24.15625,13.9375 56.3125,30.40625 -17.375,-30.125 6.15625,-3.53125 16.9375,29.3125 1.8125,-63.25 -24.15625,13.9375 -3.5625,-6.15625 25.375,-14.625 -25.375,-14.65625 3.5625,-6.125 24.53125,14.15625 L 705.625,531.5 z"
         style="fill:#7fbeff;fill-opacity:1;stroke:#007afa;stroke-width:2;stroke-miterlimit:4;stroke-opacity:1;stroke-dasharray:none" />
      <path
         id="rect7473"
         d="m 558.03125,479.75 c -13.90921,0 -25.125,11.2158 -25.125,25.125 l 0,301.28125 c 0,13.90921 11.2158,25.09375 25.125,25.09375 l 301.28125,0 c 13.90921,0 25.09372,-11.18455 25.09375,-25.09375 l 0,-301.28125 c 0,-13.90921 -11.18452,-25.125 -25.09375,-25.125 l -301.28125,0 z m 15.0625,17.59375 271.15625,0 c 12.51829,0 22.59375,10.07546 22.59375,22.59375 l 0,271.15625 c 0,12.51832 -10.07545,22.59375 -22.59375,22.59375 l -271.15625,0 C 560.57546,813.68753 550.5,803.61204 550.5,791.09375 l 0,-271.15625 c 0,-12.51826 10.07545,-22.59375 22.59375,-22.59375 z"
         style="fill:#7fbeff;fill-opacity:1;stroke:#007afa;stroke-width:2;stroke-miterlimit:4;stroke-opacity:1;stroke-dasharray:none" />
    </g>
  </g>
</svg>
