<?xml version="1.0" encoding="UTF-8" standalone="no"?>
<!-- Created with Inkscape (http://www.inkscape.org/) -->

<svg
   xmlns:dc="http://purl.org/dc/elements/1.1/"
   xmlns:cc="http://creativecommons.org/ns#"
   xmlns:rdf="http://www.w3.org/1999/02/22-rdf-syntax-ns#"
   xmlns:svg="http://www.w3.org/2000/svg"
   xmlns="http://www.w3.org/2000/svg"
   xmlns:sodipodi="http://sodipodi.sourceforge.net/DTD/sodipodi-0.dtd"
   xmlns:inkscape="http://www.inkscape.org/namespaces/inkscape"
   width="353.5"
   height="353.5"
   id="svg2"
   sodipodi:version="0.32"
   inkscape:version="0.47 r22583"
   version="1.0"
   sodipodi:docname="hairymnstr_Seasons.svg">
  <defs
     id="defs4">
    <inkscape:perspective
       sodipodi:type="inkscape:persp3d"
       inkscape:vp_x="0 : 398.54688 : 1"
       inkscape:vp_y="0 : 1000 : 0"
       inkscape:vp_z="799.03955 : 398.54688 : 1"
       inkscape:persp3d-origin="399.51978 : 265.69792 : 1"
       id="perspective2838" />
  </defs>
  <sodipodi:namedview
     id="base"
     pagecolor="#ffffff"
     bordercolor="#666666"
     borderopacity="1.0"
     gridtolerance="10000"
     guidetolerance="10"
     objecttolerance="10"
     inkscape:pageopacity="0.0"
     inkscape:pageshadow="2"
     inkscape:zoom="0.33463493"
     inkscape:cx="1038.194"
     inkscape:cy="195.80116"
     inkscape:document-units="px"
     inkscape:current-layer="layer1"
     showgrid="true"
     grid_units="cm"
     inkscape:object-paths="false"
     inkscape:grid-points="true"
     inkscape:guide-bbox="false"
     inkscape:grid-bbox="true"
     inkscape:window-width="1020"
     inkscape:window-height="698"
     inkscape:window-x="0"
     inkscape:window-y="24"
     inkscape:window-maximized="0">
    <inkscape:grid
       id="GridFromPre046Settings"
       type="xygrid"
       originx="0px"
       originy="0px"
       spacingx="0.5cm"
       spacingy="0.5cm"
       color="#0000ff"
       empcolor="#0000ff"
       opacity="0.2"
       empopacity="0.4"
       empspacing="5"
       units="cm"
       visible="true"
       enabled="true"
       snapvisiblegridlinesonly="true" />
  </sodipodi:namedview>
  <metadata
     id="metadata7">
    <rdf:RDF>
      <cc:Work
         rdf:about="">
        <dc:format>image/svg+xml</dc:format>
        <dc:type
           rdf:resource="http://purl.org/dc/dcmitype/StillImage" />
        <dc:title></dc:title>
      </cc:Work>
    </rdf:RDF>
  </metadata>
  <g
     inkscape:label="Layer 1"
     inkscape:groupmode="layer"
     id="layer1"
     transform="translate(-89,-478.75)">
    <g
       id="g2840">
      <path
         id="rect6550"
         d="m 148,514.90625 c -12.66593,0 -22.84375,10.20909 -22.84375,22.875 l 0,235.46875 c 0,12.66593 10.17782,22.875 22.84375,22.875 l 235.46875,0 c 12.66593,0 22.87498,-10.20909 22.875,-22.875 l 0,-235.46875 c 0,-12.66593 -10.20907,-22.875 -22.875,-22.875 l -235.46875,0 z m 121.375,28.125 c 7.59219,15.4547 14.06515,31.65099 13.5,52.53125 7.29172,-2.72629 14.35528,-6.48864 24.0625,2.03125 6.21664,-1.84358 11.0913,-4.02636 12.3125,-6.46875 19.95923,2.10246 26.57964,69.38061 -7.1875,80.0625 10e-6,-2e-5 -6.08047,-3.80181 -15.53125,-6.65625 1.6075,10.29117 1.9595,22.69335 0.25,38.5 -10.18194,-1.98865 -18.97794,-10.93141 -26.40625,-26.65625 -6.08684,18.4016 -14.3795,29.06217 -25.96875,28.25 -2.32818,-20.54056 -2.66871,-40.52809 4.5625,-58.34375 -0.54478,-0.2199 -1.07105,-0.4772 -1.59375,-0.75 -0.008,-0.004 -0.0229,0.004 -0.0312,0 -13.30862,0.0185 -11.24999,11.28124 -11.25,11.28125 5.13264,21.55709 8.21877,122.15628 8.21875,122.15625 l -13.34375,0 c 3.07959,-28.74279 -6.16099,-111.89275 -7.1875,-129.34375 -1.02653,-17.45097 12.31251,-16.40623 12.3125,-16.40625 l 0.0937,-0.0312 c -3.75662,-7.10944 -6.56836,-16.51331 -8.71875,-27.46875 9.17495,-10.97735 18.67623,-17.49863 29.21875,-9.375 -0.5322,-20.9442 5.00326,-37.83317 12.6875,-53.3125 z m -92.21875,6.1875 c 35.43308,53.14961 53.15625,230.31252 53.15625,230.3125 l -17.71875,0 c 0,-88.58267 -35.43749,-230.3125 -35.4375,-230.3125 z m 178.03125,141.5 -0.84375,0.21875 c -53.14961,17.71653 -88.59374,88.59377 -88.59375,88.59375 l -17.71875,0 c 0,0 19.42155,-71.32582 107.15625,-88.8125 z"
         style="fill:#8fff45;fill-opacity:1;stroke:#49b700;stroke-width:2;stroke-miterlimit:4;stroke-opacity:1;stroke-dasharray:none" />
      <path
         id="rect6554"
         d="M 118.59375,479.75 C 102.76134,479.75 90,492.51133 90,508.34375 l 0,294.34375 c 0,15.83241 12.76134,28.5625 28.59375,28.5625 l 294.3125,0 c 15.83241,0 28.59374,-12.73008 28.59375,-28.5625 l 0,-294.34375 C 441.5,492.51134 428.73866,479.75 412.90625,479.75 l -294.3125,0 z m 14.6875,17.59375 264.90625,0 c 14.24917,0 25.71875,11.46958 25.71875,25.71875 l 0,264.90625 c 10e-6,14.2492 -11.46958,25.71875 -25.71875,25.71875 l -264.90625,0 c -14.24917,3e-5 -25.71875,-11.46958 -25.71875,-25.71875 l 0,-264.90625 c 0,-14.2492 11.46958,-25.71875 25.71875,-25.71875 z"
         style="fill:#8fff45;fill-opacity:1;stroke:#49b700;stroke-width:2;stroke-miterlimit:4;stroke-opacity:1;stroke-dasharray:none" />
    </g>
  </g>
</svg>
