<?xml version="1.0" encoding="UTF-8" standalone="no"?>
<!-- Created with Inkscape (http://www.inkscape.org/) -->

<svg
   xmlns:dc="http://purl.org/dc/elements/1.1/"
   xmlns:cc="http://creativecommons.org/ns#"
   xmlns:rdf="http://www.w3.org/1999/02/22-rdf-syntax-ns#"
   xmlns:svg="http://www.w3.org/2000/svg"
   xmlns="http://www.w3.org/2000/svg"
   xmlns:sodipodi="http://sodipodi.sourceforge.net/DTD/sodipodi-0.dtd"
   xmlns:inkscape="http://www.inkscape.org/namespaces/inkscape"
   width="355.71875"
   height="355.71875"
   id="svg2"
   sodipodi:version="0.32"
   inkscape:version="0.47 r22583"
   version="1.0"
   sodipodi:docname="hairymnstr_Seasons.svg">
  <defs
     id="defs4">
    <inkscape:perspective
       sodipodi:type="inkscape:persp3d"
       inkscape:vp_x="0 : 398.54688 : 1"
       inkscape:vp_y="0 : 1000 : 0"
       inkscape:vp_z="799.03955 : 398.54688 : 1"
       inkscape:persp3d-origin="399.51978 : 265.69792 : 1"
       id="perspective15" />
  </defs>
  <sodipodi:namedview
     id="base"
     pagecolor="#ffffff"
     bordercolor="#666666"
     borderopacity="1.0"
     gridtolerance="10000"
     guidetolerance="10"
     objecttolerance="10"
     inkscape:pageopacity="0.0"
     inkscape:pageshadow="2"
     inkscape:zoom="0.33463493"
     inkscape:cx="590.22387"
     inkscape:cy="-202.50824"
     inkscape:document-units="px"
     inkscape:current-layer="layer1"
     showgrid="false"
     grid_units="cm"
     inkscape:object-paths="false"
     inkscape:grid-points="true"
     inkscape:guide-bbox="false"
     inkscape:grid-bbox="true"
     inkscape:window-width="1600"
     inkscape:window-height="838"
     inkscape:window-x="-8"
     inkscape:window-y="-8"
     inkscape:window-maximized="1">
    <inkscape:grid
       id="GridFromPre046Settings"
       type="xygrid"
       originx="0px"
       originy="0px"
       spacingx="0.5cm"
       spacingy="0.5cm"
       color="#0000ff"
       empcolor="#0000ff"
       opacity="0.2"
       empopacity="0.4"
       empspacing="5"
       units="cm"
       visible="true"
       enabled="true"
       snapvisiblegridlinesonly="true" />
  </sodipodi:namedview>
  <metadata
     id="metadata7">
    <rdf:RDF>
      <cc:Work
         rdf:about="">
        <dc:format>image/svg+xml</dc:format>
        <dc:type
           rdf:resource="http://purl.org/dc/dcmitype/StillImage" />
        <dc:title></dc:title>
      </cc:Work>
    </rdf:RDF>
  </metadata>
  <g
     inkscape:label="Layer 1"
     inkscape:groupmode="layer"
     id="layer1"
     transform="translate(-87.085435,-35.54225)">
    <g
       id="g2821">
      <path
         id="rect2767"
         d="m 143.55418,71.72975 c -11.21428,0 -20.24999,9.03573 -20.24999,20.25 l 0,242.59375 c 0,11.21428 9.03572,20.24997 20.24999,20.25 l 242.59376,0 c 11.21427,0 20.21875,-9.03573 20.21875,-20.25 l 0,-242.59375 c 0,-11.21428 -9.00448,-20.25 -20.21875,-20.25 l -242.59376,0 z m 15.0625,17.625 45.8125,0 -32.03125,160.5625 c -4.54114,-0.91442 -9.25326,-1.40625 -14.0625,-1.40625 -4.65808,0 -9.18584,0.45333 -13.59375,1.3125 l -3.84375,-19.21875 0,-123.53125 c 0,-9.81495 7.90379,-17.71875 17.71875,-17.71875 z m 152.87501,0 59.46875,0 c 9.81495,0 17.6875,7.90379 17.6875,17.71875 l 0,58.375 -171.37501,114.53125 c -5.272,-7.82738 -12.07403,-14.56996 -19.96875,-19.78125 L 311.49169,89.35475 z M 158.33543,266.8235 c 29.01107,0 52.5625,23.55138 52.5625,52.5625 0,6.21764 -1.07749,12.18121 -3.0625,17.71875 l -49.21875,0 c -9.81496,-2e-5 -17.71875,-7.90379 -17.71875,-17.71875 l 0,-49.59375 c 5.45815,-1.9214 11.32495,-2.96875 17.4375,-2.96875 z m 230.31251,6.75 0,45.8125 c 0,9.81496 -7.87254,17.71875 -17.6875,17.71875 l -123.59376,0 -19.5,-3.875 c 0.88768,-4.47692 1.34375,-9.10774 1.34375,-13.84375 0,-4.72808 -0.46007,-9.34188 -1.34375,-13.8125 l 160.78126,-32 z"
         style="fill:#eeee36;fill-opacity:1;stroke:#c4c407;stroke-width:2;stroke-miterlimit:4;stroke-opacity:1;stroke-dasharray:none" />
      <path
         id="rect2771"
         d="m 113.39794,36.54225 c -14.012915,0 -25.312505,11.26835 -25.312505,25.28125 l 0,303.125 c 0,14.01291 11.29958,25.31248 25.312505,25.3125 l 303.125,0 c 14.0129,0 25.28123,-11.2996 25.28125,-25.3125 l 0,-303.125 c 0,-14.01291 -11.26835,-25.28125 -25.28125,-25.28125 l -303.125,0 z m 15.06249,17.59375 272.87501,0 c 12.61358,0 22.75,10.16766 22.75,22.78125 l 0,272.84375 c -1e-5,12.61356 -10.13641,22.78125 -22.75,22.78125 l -272.87501,0 c -12.6136,0 -22.74999,-10.16766 -22.74999,-22.78125 l 0,-272.84375 c 0,-12.61359 10.13641,-22.78125 22.74999,-22.78125 z"
         style="fill:#eeee36;fill-opacity:1;stroke:#c4c407;stroke-width:2;stroke-miterlimit:4;stroke-opacity:1;stroke-dasharray:none" />
    </g>
  </g>
</svg>
