<?xml version="1.0" encoding="UTF-8" standalone="no"?>
<!-- Created with Inkscape (http://www.inkscape.org/) -->

<svg
   xmlns:dc="http://purl.org/dc/elements/1.1/"
   xmlns:cc="http://creativecommons.org/ns#"
   xmlns:rdf="http://www.w3.org/1999/02/22-rdf-syntax-ns#"
   xmlns:svg="http://www.w3.org/2000/svg"
   xmlns="http://www.w3.org/2000/svg"
   xmlns:sodipodi="http://sodipodi.sourceforge.net/DTD/sodipodi-0.dtd"
   xmlns:inkscape="http://www.inkscape.org/namespaces/inkscape"
   width="354.90625"
   height="354.90625"
   id="svg2"
   sodipodi:version="0.32"
   inkscape:version="0.47 r22583"
   version="1.0"
   sodipodi:docname="hairymnstr_Seasons.svg">
  <defs
     id="defs4">
    <inkscape:perspective
       sodipodi:type="inkscape:persp3d"
       inkscape:vp_x="0 : 398.54688 : 1"
       inkscape:vp_y="0 : 1000 : 0"
       inkscape:vp_z="799.03955 : 398.54688 : 1"
       inkscape:persp3d-origin="399.51978 : 265.69792 : 1"
       id="perspective2876" />
  </defs>
  <sodipodi:namedview
     id="base"
     pagecolor="#ffffff"
     bordercolor="#666666"
     borderopacity="1.0"
     gridtolerance="10000"
     guidetolerance="10"
     objecttolerance="10"
     inkscape:pageopacity="0.0"
     inkscape:pageshadow="2"
     inkscape:zoom="0.33463493"
     inkscape:cx="-103.3591"
     inkscape:cy="134.14438"
     inkscape:document-units="px"
     inkscape:current-layer="layer1"
     showgrid="true"
     grid_units="cm"
     inkscape:object-paths="false"
     inkscape:grid-points="true"
     inkscape:guide-bbox="false"
     inkscape:grid-bbox="true"
     inkscape:window-width="1020"
     inkscape:window-height="698"
     inkscape:window-x="0"
     inkscape:window-y="24"
     inkscape:window-maximized="0">
    <inkscape:grid
       id="GridFromPre046Settings"
       type="xygrid"
       originx="0px"
       originy="0px"
       spacingx="0.5cm"
       spacingy="0.5cm"
       color="#0000ff"
       empcolor="#0000ff"
       opacity="0.2"
       empopacity="0.4"
       empspacing="5"
       units="cm"
       visible="true"
       enabled="true"
       snapvisiblegridlinesonly="true" />
  </sodipodi:namedview>
  <metadata
     id="metadata7">
    <rdf:RDF>
      <cc:Work
         rdf:about="">
        <dc:format>image/svg+xml</dc:format>
        <dc:type
           rdf:resource="http://purl.org/dc/dcmitype/StillImage" />
        <dc:title></dc:title>
      </cc:Work>
    </rdf:RDF>
  </metadata>
  <g
     inkscape:label="Layer 1"
     inkscape:groupmode="layer"
     id="layer1"
     transform="translate(-531.21875,-35.15625)">
    <g
       id="g2878">
      <path
         id="rect5548"
         d="M 587.65625,71.4375 C 576.48419,71.4375 567.5,80.421692 567.5,91.59375 l 0,242 c 0,11.17206 8.98422,20.15625 20.15625,20.15625 l 242,0 c 11.17206,0 20.15622,-8.98419 20.15625,-20.15625 l 0,-242 c 0,-11.172056 -8.98419,-20.15625 -20.15625,-20.15625 l -242,0 z m 80.28125,19.03125 c 27.98789,49.43879 26.45428,78.81564 24.5,89.21875 15.93135,-54.70341 115.93013,-65.81985 116.25,-65.5 0.31979,0.31977 -11.34022,99.67694 -65.75,115.90625 10.42199,-1.99796 39.64971,-3.60989 88.5,23.84375 0,0 -81.77334,58.6071 -116.59375,47.1875 4.53232,7.40894 10.68171,13.08326 11.4375,34.84375 -14.96608,-0.28001 -72.13889,-31.11641 -70.15625,-65.84375 -10.10406,10.94189 -40.68315,44.77059 -40.21875,48.9375 L 603.59375,306.75 c 4.36533,0.5001 39.78159,-31.51186 49.125,-40.03125 -34.92596,1.78402 -66.31505,-55.91011 -66.6875,-70.96875 21.89714,0.89248 27.6124,7.08283 35.09375,11.6875 -11.70033,-35.10111 46.81253,-116.968747 46.8125,-116.96875 z m 75,139.625 c -2.89132,0.5543 -4.40624,1.125 -4.40625,1.125 1.51053,-0.3108 2.95699,-0.6927 4.40625,-1.125 z m -50.5,-50.40625 c -0.41721,1.43256 -0.79517,2.85075 -1.09375,4.34375 0,0 0.55795,-1.49131 1.09375,-4.34375 z"
         style="fill:#b71900;fill-opacity:1;stroke:#680e00;stroke-width:2;stroke-miterlimit:4;stroke-opacity:1;stroke-dasharray:none" />
      <path
         id="rect5552"
         d="m 557.40625,36.15625 c -13.96507,0 -25.1875,11.222428 -25.1875,25.1875 l 0,302.5 c 0,13.96507 11.22244,25.21873 25.1875,25.21875 l 302.5,0 c 13.96507,0 25.21875,-11.25367 25.21875,-25.21875 l 0,-302.5 c 0,-13.96507 -11.25369,-25.1875 -25.21875,-25.1875 l -302.5,0 z m 15.125,17.625 272.25,0 c 12.56855,0 22.6875,10.118937 22.6875,22.6875 l 0,272.25 c -3e-5,12.56857 -10.11894,22.6875 -22.6875,22.6875 l -272.25,0 c -12.56858,-10e-6 -22.6875,-10.11894 -22.6875,-22.6875 l 0,-272.25 c 0,-12.568561 10.11894,-22.6875 22.6875,-22.6875 z"
         style="fill:#b71900;fill-opacity:1;stroke:#680e00;stroke-width:2;stroke-miterlimit:4;stroke-opacity:1;stroke-dasharray:none" />
    </g>
  </g>
</svg>
